<mxfile host="app.diagrams.net" agent="Mozilla/5.0 (Windows NT 10.0; Win64; x64) AppleWebKit/537.36 (KHTML, like Gecko) Chrome/131.0.0.0 Safari/537.36 Edg/131.0.0.0" version="27.1.6">
  <diagram name="第 1 页" id="XrgBkeFr2WRqReSsp5n4">
    <mxGraphModel dx="2492" dy="2008" grid="1" gridSize="10" guides="1" tooltips="1" connect="1" arrows="1" fold="1" page="1" pageScale="1" pageWidth="827" pageHeight="1169" math="0" shadow="0">
      <root>
        <mxCell id="0" />
        <mxCell id="1" parent="0" />
        <mxCell id="JABbdI3Ul3ckVxRLeqa8-57" value="" style="rounded=0;whiteSpace=wrap;html=1;" parent="1" vertex="1">
          <mxGeometry x="-445" y="-60" width="355" height="680" as="geometry" />
        </mxCell>
        <mxCell id="JABbdI3Ul3ckVxRLeqa8-49" style="edgeStyle=none;curved=1;rounded=0;orthogonalLoop=1;jettySize=auto;html=1;exitX=0.5;exitY=1;exitDx=0;exitDy=0;fontSize=12;startSize=8;endSize=8;" parent="1" source="JABbdI3Ul3ckVxRLeqa8-32" target="JABbdI3Ul3ckVxRLeqa8-34" edge="1">
          <mxGeometry relative="1" as="geometry" />
        </mxCell>
        <mxCell id="JABbdI3Ul3ckVxRLeqa8-32" value="Multi-Head Attention Cross" style="whiteSpace=wrap;strokeWidth=2;" parent="1" vertex="1">
          <mxGeometry x="-393" y="310" width="246" height="54" as="geometry" />
        </mxCell>
        <mxCell id="JABbdI3Ul3ckVxRLeqa8-2" value="h_in" style="whiteSpace=wrap;strokeWidth=2;" parent="1" vertex="1">
          <mxGeometry x="42" y="20" width="90" height="54" as="geometry" />
        </mxCell>
        <mxCell id="JABbdI3Ul3ckVxRLeqa8-3" value="W_q h_in" style="whiteSpace=wrap;strokeWidth=2;" parent="1" vertex="1">
          <mxGeometry x="25" y="124" width="126" height="54" as="geometry" />
        </mxCell>
        <mxCell id="JABbdI3Ul3ckVxRLeqa8-4" value="W_k A_q" style="whiteSpace=wrap;strokeWidth=2;" parent="1" vertex="1">
          <mxGeometry x="125" y="228" width="121" height="54" as="geometry" />
        </mxCell>
        <mxCell id="JABbdI3Ul3ckVxRLeqa8-5" value="LoRA Injection" style="whiteSpace=wrap;strokeWidth=2;" parent="1" vertex="1">
          <mxGeometry x="201" y="124" width="163" height="54" as="geometry" />
        </mxCell>
        <mxCell id="JABbdI3Ul3ckVxRLeqa8-6" value="Attention" style="whiteSpace=wrap;strokeWidth=2;" parent="1" vertex="1">
          <mxGeometry x="121" y="332" width="128" height="54" as="geometry" />
        </mxCell>
        <mxCell id="JABbdI3Ul3ckVxRLeqa8-62" style="edgeStyle=none;curved=1;rounded=0;orthogonalLoop=1;jettySize=auto;html=1;exitX=0;exitY=0.5;exitDx=0;exitDy=0;entryX=1;entryY=0.5;entryDx=0;entryDy=0;fontSize=12;startSize=8;endSize=8;" parent="1" source="JABbdI3Ul3ckVxRLeqa8-7" target="JABbdI3Ul3ckVxRLeqa8-32" edge="1">
          <mxGeometry relative="1" as="geometry" />
        </mxCell>
        <mxCell id="JABbdI3Ul3ckVxRLeqa8-7" value="h_out" style="whiteSpace=wrap;strokeWidth=2;" parent="1" vertex="1">
          <mxGeometry x="135" y="461" width="101" height="54" as="geometry" />
        </mxCell>
        <mxCell id="JABbdI3Ul3ckVxRLeqa8-8" value="h_out = W_q h_in + B_q A_q h_in" style="whiteSpace=wrap;strokeWidth=2;" parent="1" vertex="1">
          <mxGeometry x="55" y="565" width="260" height="78" as="geometry" />
        </mxCell>
        <mxCell id="JABbdI3Ul3ckVxRLeqa8-9" value="" style="curved=1;startArrow=none;endArrow=block;exitX=0.51;exitY=1;entryX=0.5;entryY=0;rounded=0;fontSize=12;startSize=8;endSize=8;" parent="1" source="JABbdI3Ul3ckVxRLeqa8-2" target="JABbdI3Ul3ckVxRLeqa8-3" edge="1">
          <mxGeometry relative="1" as="geometry">
            <Array as="points" />
          </mxGeometry>
        </mxCell>
        <mxCell id="JABbdI3Ul3ckVxRLeqa8-10" value="" style="curved=1;startArrow=none;endArrow=block;exitX=0.5;exitY=1;entryX=0.08;entryY=0;rounded=0;fontSize=12;startSize=8;endSize=8;" parent="1" source="JABbdI3Ul3ckVxRLeqa8-3" target="JABbdI3Ul3ckVxRLeqa8-4" edge="1">
          <mxGeometry relative="1" as="geometry">
            <Array as="points">
              <mxPoint x="88" y="203" />
            </Array>
          </mxGeometry>
        </mxCell>
        <mxCell id="JABbdI3Ul3ckVxRLeqa8-11" value="" style="curved=1;startArrow=none;endArrow=block;exitX=0.5;exitY=1;entryX=0.91;entryY=0;rounded=0;fontSize=12;startSize=8;endSize=8;" parent="1" source="JABbdI3Ul3ckVxRLeqa8-5" target="JABbdI3Ul3ckVxRLeqa8-4" edge="1">
          <mxGeometry relative="1" as="geometry">
            <Array as="points">
              <mxPoint x="282" y="203" />
            </Array>
          </mxGeometry>
        </mxCell>
        <mxCell id="JABbdI3Ul3ckVxRLeqa8-61" value="这一个运算开始有lora的介入" style="edgeLabel;html=1;align=center;verticalAlign=middle;resizable=0;points=[];fontSize=12;" parent="JABbdI3Ul3ckVxRLeqa8-11" vertex="1" connectable="0">
          <mxGeometry x="0.0295" y="-3" relative="1" as="geometry">
            <mxPoint as="offset" />
          </mxGeometry>
        </mxCell>
        <mxCell id="JABbdI3Ul3ckVxRLeqa8-12" value="" style="curved=1;startArrow=none;endArrow=block;exitX=0.5;exitY=1;entryX=0.5;entryY=0;rounded=0;fontSize=12;startSize=8;endSize=8;" parent="1" source="JABbdI3Ul3ckVxRLeqa8-4" target="JABbdI3Ul3ckVxRLeqa8-6" edge="1">
          <mxGeometry relative="1" as="geometry">
            <Array as="points" />
          </mxGeometry>
        </mxCell>
        <mxCell id="JABbdI3Ul3ckVxRLeqa8-13" value="" style="curved=1;startArrow=none;endArrow=block;exitX=0.5;exitY=1;entryX=0.5;entryY=0;rounded=0;fontSize=12;startSize=8;endSize=8;" parent="1" source="JABbdI3Ul3ckVxRLeqa8-6" target="JABbdI3Ul3ckVxRLeqa8-7" edge="1">
          <mxGeometry relative="1" as="geometry">
            <Array as="points" />
          </mxGeometry>
        </mxCell>
        <mxCell id="JABbdI3Ul3ckVxRLeqa8-15" value="Input Tokens" style="whiteSpace=wrap;strokeWidth=2;" parent="1" vertex="1">
          <mxGeometry x="-680" y="74" width="150" height="54" as="geometry" />
        </mxCell>
        <mxCell id="JABbdI3Ul3ckVxRLeqa8-54" style="edgeStyle=none;curved=1;rounded=0;orthogonalLoop=1;jettySize=auto;html=1;exitX=0.5;exitY=1;exitDx=0;exitDy=0;entryX=0.5;entryY=0;entryDx=0;entryDy=0;fontSize=12;startSize=8;endSize=8;" parent="1" source="JABbdI3Ul3ckVxRLeqa8-16" target="JABbdI3Ul3ckVxRLeqa8-28" edge="1">
          <mxGeometry relative="1" as="geometry">
            <Array as="points">
              <mxPoint x="-480" y="300" />
              <mxPoint x="-460" y="120" />
              <mxPoint x="-410" y="-110" />
            </Array>
          </mxGeometry>
        </mxCell>
        <mxCell id="JABbdI3Ul3ckVxRLeqa8-16" value="PE(pos, 2i) = sin(pos / 10000^(2i/d))&#xa;&#xa;PE(pos, 2i+1) = cos(pos / 10000^(2i/d))" style="whiteSpace=wrap;strokeWidth=2;" parent="1" vertex="1">
          <mxGeometry x="-705" y="178" width="198" height="54" as="geometry" />
        </mxCell>
        <mxCell id="JABbdI3Ul3ckVxRLeqa8-47" style="edgeStyle=none;curved=1;rounded=0;orthogonalLoop=1;jettySize=auto;html=1;exitX=1;exitY=0.5;exitDx=0;exitDy=0;fontSize=12;startSize=8;endSize=8;" parent="1" source="JABbdI3Ul3ckVxRLeqa8-18" edge="1">
          <mxGeometry relative="1" as="geometry">
            <mxPoint x="-270" y="310" as="targetPoint" />
            <Array as="points">
              <mxPoint x="-480" y="240" />
            </Array>
          </mxGeometry>
        </mxCell>
        <mxCell id="JABbdI3Ul3ckVxRLeqa8-48" style="edgeStyle=none;curved=1;rounded=0;orthogonalLoop=1;jettySize=auto;html=1;exitX=1;exitY=0;exitDx=0;exitDy=0;fontSize=12;startSize=8;endSize=8;" parent="1" source="JABbdI3Ul3ckVxRLeqa8-18" edge="1">
          <mxGeometry relative="1" as="geometry">
            <mxPoint x="-270" y="310" as="targetPoint" />
            <Array as="points">
              <mxPoint x="-440" y="270" />
            </Array>
          </mxGeometry>
        </mxCell>
        <mxCell id="JABbdI3Ul3ckVxRLeqa8-18" value="Encoder Output" style="whiteSpace=wrap;strokeWidth=2;" parent="1" vertex="1">
          <mxGeometry x="-692" y="310" width="172" height="54" as="geometry" />
        </mxCell>
        <mxCell id="JABbdI3Ul3ckVxRLeqa8-22" value="" style="curved=1;startArrow=none;endArrow=block;exitX=0.5;exitY=1;entryX=0.5;entryY=0;rounded=0;fontSize=12;startSize=8;endSize=8;" parent="1" source="JABbdI3Ul3ckVxRLeqa8-15" target="JABbdI3Ul3ckVxRLeqa8-16" edge="1">
          <mxGeometry relative="1" as="geometry">
            <Array as="points" />
          </mxGeometry>
        </mxCell>
        <mxCell id="JABbdI3Ul3ckVxRLeqa8-27" value="&lt;span style=&quot;color: rgb(0, 0, 0); font-family: Helvetica; font-size: 12px; font-style: normal; font-variant-ligatures: normal; font-variant-caps: normal; font-weight: 400; letter-spacing: normal; orphans: 2; text-align: center; text-indent: 0px; text-transform: none; widows: 2; word-spacing: 0px; -webkit-text-stroke-width: 0px; white-space: normal; background-color: rgb(236, 236, 236); text-decoration-thickness: initial; text-decoration-style: initial; text-decoration-color: initial; display: inline !important; float: none;&quot;&gt;Positional Encoding&lt;/span&gt;" style="text;whiteSpace=wrap;html=1;" parent="1" vertex="1">
          <mxGeometry x="-820" y="192" width="140" height="40" as="geometry" />
        </mxCell>
        <mxCell id="JABbdI3Ul3ckVxRLeqa8-40" style="edgeStyle=none;curved=1;rounded=0;orthogonalLoop=1;jettySize=auto;html=1;exitX=0.5;exitY=1;exitDx=0;exitDy=0;fontSize=12;startSize=8;endSize=8;" parent="1" source="JABbdI3Ul3ckVxRLeqa8-28" target="JABbdI3Ul3ckVxRLeqa8-29" edge="1">
          <mxGeometry relative="1" as="geometry">
            <Array as="points">
              <mxPoint x="-270" y="30" />
            </Array>
          </mxGeometry>
        </mxCell>
        <mxCell id="JABbdI3Ul3ckVxRLeqa8-28" value="Layer Norm" style="whiteSpace=wrap;strokeWidth=2;" parent="1" vertex="1">
          <mxGeometry x="-341" y="-50" width="142" height="54" as="geometry" />
        </mxCell>
        <mxCell id="JABbdI3Ul3ckVxRLeqa8-42" style="edgeStyle=none;curved=1;rounded=0;orthogonalLoop=1;jettySize=auto;html=1;exitX=0.5;exitY=1;exitDx=0;exitDy=0;entryX=0.5;entryY=0;entryDx=0;entryDy=0;fontSize=12;startSize=8;endSize=8;" parent="1" source="JABbdI3Ul3ckVxRLeqa8-51" target="JABbdI3Ul3ckVxRLeqa8-31" edge="1">
          <mxGeometry relative="1" as="geometry" />
        </mxCell>
        <mxCell id="JABbdI3Ul3ckVxRLeqa8-29" value="Multi-Head Attention Masked" style="whiteSpace=wrap;strokeWidth=2;" parent="1" vertex="1">
          <mxGeometry x="-400" y="54" width="260" height="78" as="geometry" />
        </mxCell>
        <mxCell id="JABbdI3Ul3ckVxRLeqa8-46" style="edgeStyle=none;curved=1;rounded=0;orthogonalLoop=1;jettySize=auto;html=1;exitX=0.5;exitY=1;exitDx=0;exitDy=0;entryX=0.5;entryY=0;entryDx=0;entryDy=0;fontSize=12;startSize=8;endSize=8;" parent="1" source="JABbdI3Ul3ckVxRLeqa8-31" target="JABbdI3Ul3ckVxRLeqa8-32" edge="1">
          <mxGeometry relative="1" as="geometry" />
        </mxCell>
        <mxCell id="JABbdI3Ul3ckVxRLeqa8-50" style="edgeStyle=none;curved=1;rounded=0;orthogonalLoop=1;jettySize=auto;html=1;exitX=0.5;exitY=1;exitDx=0;exitDy=0;fontSize=12;startSize=8;endSize=8;" parent="1" source="JABbdI3Ul3ckVxRLeqa8-31" edge="1">
          <mxGeometry relative="1" as="geometry">
            <mxPoint x="-270" y="390" as="targetPoint" />
            <Array as="points">
              <mxPoint x="30" y="310" />
            </Array>
          </mxGeometry>
        </mxCell>
        <mxCell id="JABbdI3Ul3ckVxRLeqa8-59" style="edgeStyle=none;curved=1;rounded=0;orthogonalLoop=1;jettySize=auto;html=1;exitX=1;exitY=0.5;exitDx=0;exitDy=0;entryX=0;entryY=0.5;entryDx=0;entryDy=0;fontSize=12;startSize=8;endSize=8;" parent="1" source="JABbdI3Ul3ckVxRLeqa8-31" target="JABbdI3Ul3ckVxRLeqa8-2" edge="1">
          <mxGeometry relative="1" as="geometry" />
        </mxCell>
        <mxCell id="JABbdI3Ul3ckVxRLeqa8-60" value="h_in来自这里" style="edgeLabel;html=1;align=center;verticalAlign=middle;resizable=0;points=[];fontSize=12;" parent="JABbdI3Ul3ckVxRLeqa8-59" vertex="1" connectable="0">
          <mxGeometry x="0.742" y="-1" relative="1" as="geometry">
            <mxPoint as="offset" />
          </mxGeometry>
        </mxCell>
        <mxCell id="JABbdI3Ul3ckVxRLeqa8-31" value="Layer Norm" style="whiteSpace=wrap;strokeWidth=2;" parent="1" vertex="1">
          <mxGeometry x="-341" y="185" width="142" height="54" as="geometry" />
        </mxCell>
        <mxCell id="JABbdI3Ul3ckVxRLeqa8-55" style="edgeStyle=none;curved=1;rounded=0;orthogonalLoop=1;jettySize=auto;html=1;exitX=0.5;exitY=1;exitDx=0;exitDy=0;fontSize=12;startSize=8;endSize=8;" parent="1" source="JABbdI3Ul3ckVxRLeqa8-34" target="JABbdI3Ul3ckVxRLeqa8-35" edge="1">
          <mxGeometry relative="1" as="geometry" />
        </mxCell>
        <mxCell id="JABbdI3Ul3ckVxRLeqa8-34" value="Layer Norm" style="whiteSpace=wrap;strokeWidth=2;" parent="1" vertex="1">
          <mxGeometry x="-341" y="420" width="142" height="54" as="geometry" />
        </mxCell>
        <mxCell id="JABbdI3Ul3ckVxRLeqa8-56" style="edgeStyle=none;curved=1;rounded=0;orthogonalLoop=1;jettySize=auto;html=1;exitX=0.5;exitY=1;exitDx=0;exitDy=0;fontSize=12;startSize=8;endSize=8;" parent="1" source="JABbdI3Ul3ckVxRLeqa8-35" target="JABbdI3Ul3ckVxRLeqa8-36" edge="1">
          <mxGeometry relative="1" as="geometry" />
        </mxCell>
        <mxCell id="JABbdI3Ul3ckVxRLeqa8-35" value="FFN" style="whiteSpace=wrap;strokeWidth=2;" parent="1" vertex="1">
          <mxGeometry x="-313.5" y="525" width="87" height="54" as="geometry" />
        </mxCell>
        <mxCell id="JABbdI3Ul3ckVxRLeqa8-36" value="Output" style="whiteSpace=wrap;strokeWidth=2;" parent="1" vertex="1">
          <mxGeometry x="-325" y="643" width="110" height="54" as="geometry" />
        </mxCell>
        <mxCell id="JABbdI3Ul3ckVxRLeqa8-43" value="" style="endArrow=classic;html=1;rounded=0;fontSize=12;startSize=8;endSize=8;curved=1;" parent="1" edge="1">
          <mxGeometry width="50" height="50" relative="1" as="geometry">
            <mxPoint x="-270" y="30" as="sourcePoint" />
            <mxPoint x="-270" y="160" as="targetPoint" />
            <Array as="points">
              <mxPoint x="-100" y="30" />
            </Array>
          </mxGeometry>
        </mxCell>
        <mxCell id="JABbdI3Ul3ckVxRLeqa8-44" value="" style="endArrow=classic;html=1;rounded=0;fontSize=12;startSize=8;endSize=8;curved=1;" parent="1" edge="1">
          <mxGeometry width="50" height="50" relative="1" as="geometry">
            <mxPoint x="-270" y="10" as="sourcePoint" />
            <mxPoint x="-240" y="50" as="targetPoint" />
          </mxGeometry>
        </mxCell>
        <mxCell id="JABbdI3Ul3ckVxRLeqa8-45" value="" style="endArrow=classic;html=1;rounded=0;fontSize=12;startSize=8;endSize=8;curved=1;exitX=0.5;exitY=1;exitDx=0;exitDy=0;" parent="1" source="JABbdI3Ul3ckVxRLeqa8-28" edge="1">
          <mxGeometry width="50" height="50" relative="1" as="geometry">
            <mxPoint x="-90" y="170" as="sourcePoint" />
            <mxPoint x="-300" y="50" as="targetPoint" />
          </mxGeometry>
        </mxCell>
        <mxCell id="JABbdI3Ul3ckVxRLeqa8-52" value="" style="edgeStyle=none;curved=1;rounded=0;orthogonalLoop=1;jettySize=auto;html=1;exitX=0.5;exitY=1;exitDx=0;exitDy=0;entryX=0.5;entryY=0;entryDx=0;entryDy=0;fontSize=12;startSize=8;endSize=8;" parent="1" source="JABbdI3Ul3ckVxRLeqa8-29" target="JABbdI3Ul3ckVxRLeqa8-51" edge="1">
          <mxGeometry relative="1" as="geometry">
            <mxPoint x="-270" y="132" as="sourcePoint" />
            <mxPoint x="-270" y="185" as="targetPoint" />
          </mxGeometry>
        </mxCell>
        <mxCell id="JABbdI3Ul3ckVxRLeqa8-51" value="+" style="ellipse;whiteSpace=wrap;html=1;aspect=fixed;" parent="1" vertex="1">
          <mxGeometry x="-278.5" y="150" width="17" height="17" as="geometry" />
        </mxCell>
        <mxCell id="JABbdI3Ul3ckVxRLeqa8-53" value="+" style="ellipse;whiteSpace=wrap;html=1;aspect=fixed;" parent="1" vertex="1">
          <mxGeometry x="-285" y="370" width="30" height="30" as="geometry" />
        </mxCell>
        <mxCell id="JABbdI3Ul3ckVxRLeqa8-58" style="edgeStyle=none;curved=1;rounded=0;orthogonalLoop=1;jettySize=auto;html=1;exitX=0.5;exitY=1;exitDx=0;exitDy=0;fontSize=12;startSize=8;endSize=8;" parent="1" source="JABbdI3Ul3ckVxRLeqa8-57" target="JABbdI3Ul3ckVxRLeqa8-57" edge="1">
          <mxGeometry relative="1" as="geometry" />
        </mxCell>
      </root>
    </mxGraphModel>
  </diagram>
</mxfile>
